<?xml version="1.0" standalone="no"?><svg xmlns="http://www.w3.org/2000/svg" viewBox="0 0 1440 320"><path fill="#B0C4DE" fill-opacity="1" d="M0,0L0,224L84.7,224L84.7,288L169.4,288L169.4,32L254.1,32L254.1,128L338.8,128L338.8,192L423.5,192L423.5,96L508.2,96L508.2,32L592.9,32L592.9,160L677.6,160L677.6,64L762.4,64L762.4,288L847.1,288L847.1,224L931.8,224L931.8,32L1016.5,32L1016.5,192L1101.2,192L1101.2,224L1185.9,224L1185.9,160L1270.6,160L1270.6,96L1355.3,96L1355.3,128L1440,128L1440,320L1355.3,320L1355.3,320L1270.6,320L1270.6,320L1185.9,320L1185.9,320L1101.2,320L1101.2,320L1016.5,320L1016.5,320L931.8,320L931.8,320L847.1,320L847.1,320L762.4,320L762.4,320L677.6,320L677.6,320L592.9,320L592.9,320L508.2,320L508.2,320L423.5,320L423.5,320L338.8,320L338.8,320L254.1,320L254.1,320L169.4,320L169.4,320L84.7,320L84.7,320L0,320L0,320Z"></path></svg>