<?xml version="1.0" standalone="no"?><svg xmlns="http://www.w3.org/2000/svg" viewBox="0 0 1440 320"><path fill="#0000FF	" fill-opacity="1" d="M0,256L62.6,256L125.2,32L187.8,256L250.4,32L313,32L375.7,64L438.3,192L500.9,288L563.5,160L626.1,288L688.7,256L751.3,0L813.9,64L876.5,64L939.1,320L1001.7,32L1064.3,256L1127,128L1189.6,160L1252.2,256L1314.8,160L1377.4,128L1440,0L1440,320L1377.4,320L1314.8,320L1252.2,320L1189.6,320L1127,320L1064.3,320L1001.7,320L939.1,320L876.5,320L813.9,320L751.3,320L688.7,320L626.1,320L563.5,320L500.9,320L438.3,320L375.7,320L313,320L250.4,320L187.8,320L125.2,320L62.6,320L0,320Z"></path></svg>