<?xml version="1.0" standalone="no"?><svg xmlns="http://www.w3.org/2000/svg" viewBox="0 0 1440 320"><path fill="#FF4500" fill-opacity="1" d="M0,320L21.8,314.7C43.6,309,87,299,131,288C174.5,277,218,267,262,256C305.5,245,349,235,393,213.3C436.4,192,480,160,524,133.3C567.3,107,611,85,655,69.3C698.2,53,742,43,785,37.3C829.1,32,873,32,916,48C960,64,1004,96,1047,101.3C1090.9,107,1135,85,1178,74.7C1221.8,64,1265,64,1309,80C1352.7,96,1396,128,1418,144L1440,160L1440,320L1418.2,320C1396.4,320,1353,320,1309,320C1265.5,320,1222,320,1178,320C1134.5,320,1091,320,1047,320C1003.6,320,960,320,916,320C872.7,320,829,320,785,320C741.8,320,698,320,655,320C610.9,320,567,320,524,320C480,320,436,320,393,320C349.1,320,305,320,262,320C218.2,320,175,320,131,320C87.3,320,44,320,22,320L0,320Z"></path></svg>