<?xml version="1.0" standalone="no"?><svg xmlns="http://www.w3.org/2000/svg" viewBox="0 0 1440 320"><path fill="#008000	" fill-opacity="1" d="M0,32L40,58.7C80,85,160,139,240,149.3C320,160,400,128,480,138.7C560,149,640,203,720,197.3C800,192,880,128,960,96C1040,64,1120,64,1200,85.3C1280,107,1360,149,1400,170.7L1440,192L1440,320L1400,320C1360,320,1280,320,1200,320C1120,320,1040,320,960,320C880,320,800,320,720,320C640,320,560,320,480,320C400,320,320,320,240,320C160,320,80,320,40,320L0,320Z"></path></svg>